Coordinates
version=1
nRows=13
nColumns=63
inDegrees=yes

Units are S.I. units (second, meters, Newtons, ...)
If the header above contains a line with 'inDegrees', this indicates whether rotational values are in degrees (yes) or radians (no).

endheader
time	pelvis_tilt	pelvis_list	pelvis_rotation	pelvis_tx	pelvis_ty	pelvis_tz	hip_flexion_r	hip_adduction_r	hip_rotation_r	knee_angle_r	knee_angle_r_beta	ankle_angle_r	subtalar_angle_r	mtp_angle_r	hip_flexion_l	hip_adduction_l	hip_rotation_l	knee_angle_l	knee_angle_l_beta	ankle_angle_l	subtalar_angle_l	mtp_angle_l	L5_S1_Flex_Ext	L5_S1_Lat_Bending	L5_S1_axial_rotation	L4_L5_Flex_Ext	L4_L5_Lat_Bending	L4_L5_axial_rotation	L3_L4_Flex_Ext	L3_L4_Lat_Bending	L3_L4_axial_rotation	L2_L3_Flex_Ext	L2_L3_Lat_Bending	L2_L3_axial_rotation	L1_L2_Flex_Ext	L1_L2_Lat_Bending	L1_L2_axial_rotation	L1_T12_Flex_Ext	L1_T12_Lat_Bending	L1_T12_axial_rotation	Abs_r3	Abs_r2	Abs_r1	Abs_t1	Abs_t2	neck_flexion	neck_bending	neck_rotation	arm_flex_r	arm_add_r	arm_rot_r	elbow_flex_r	pro_sup_r	wrist_flex_r	wrist_dev_r	arm_flex_l	arm_add_l	arm_rot_l	elbow_flex_l	pro_sup_l	wrist_flex_l	wrist_dev_l
4.034483	1.649825	-5.824714	79.635998	0.186783	0.891181	0.493444	1.424686	-5.412090	2.677403	12.024202	0.209862	33.518464	7.796168	0.000000	-2.643138	2.037891	-1.995646	5.764478	0.100609	22.884903	-5.105536	0.000000	-0.439380	-0.252751	0.793410	-0.815972	-0.336158	0.842998	-0.721857	-0.614538	0.842998	-0.502167	-0.614538	0.694234	-0.408008	-0.515409	0.644646	-0.251061	-0.391511	0.595058	-3.138444	-2.859167	4.412709	0.000000	0.000000	-6.147803	6.127825	1.296695	18.445591	-8.122712	25.760072	132.700625	88.751367	-6.828240	16.408144	12.043516	-20.101849	30.306986	127.286152	89.761721	-21.533726	-21.218477
4.051724	1.809470	-5.842689	80.383804	0.186294	0.890747	0.493026	1.137278	-5.208841	2.219261	11.775402	0.205520	33.581061	7.650717	0.000000	-2.518499	1.838386	-1.164843	6.108734	0.106618	22.904019	-5.493582	0.000000	-0.421746	-0.240061	0.721530	-0.783224	-0.319281	0.766626	-0.692886	-0.583684	0.766626	-0.482013	-0.583684	0.631339	-0.391633	-0.489532	0.586243	-0.240985	-0.371854	0.541148	-3.012487	-2.715616	4.012935	0.000000	0.000000	-5.624093	6.304787	0.836685	16.732206	-9.261874	25.679641	130.740293	88.791481	-5.813905	15.245940	11.512195	-20.948264	30.609558	125.080044	89.153535	-21.808353	-20.691818
4.068966	1.995350	-5.885074	81.264500	0.185538	0.890298	0.492710	0.845721	-4.983662	1.607822	11.490106	0.200540	33.640202	7.555797	0.000000	-2.324968	1.609660	-0.327544	6.494105	0.113344	22.991552	-5.715175	0.000000	-0.399291	-0.221197	0.636314	-0.741522	-0.294192	0.676084	-0.655994	-0.537818	0.676084	-0.456349	-0.537818	0.556775	-0.370781	-0.451064	0.517005	-0.228155	-0.342634	0.477236	-2.852092	-2.502222	3.538990	0.000000	0.000000	-5.093822	6.401830	0.325445	15.210974	-10.609889	26.093143	128.328099	88.816023	-4.766431	14.162582	10.889703	-21.720823	30.935245	122.611581	88.010860	-21.171689	-19.415485
4.086207	2.240696	-5.945468	82.289932	0.184425	0.889871	0.492532	0.533768	-4.700141	0.858514	11.157560	0.194736	33.655848	7.457796	0.000000	-2.078099	1.316061	0.511952	6.907241	0.120554	23.151533	-5.735813	0.000000	-0.374295	-0.189626	0.523751	-0.695102	-0.252202	0.556485	-0.614929	-0.461056	0.556485	-0.427781	-0.461056	0.458282	-0.347570	-0.386685	0.425547	-0.213872	-0.293730	0.392813	-2.673549	-2.145083	2.912944	0.000000	0.000000	-4.569157	6.368245	-0.077063	14.052441	-12.103011	27.117846	125.345648	88.893605	-3.571226	13.178827	10.211124	-22.310510	31.231242	119.822984	86.551273	-19.736125	-17.399653
4.103448	2.511465	-6.024107	83.400074	0.183028	0.889496	0.492547	0.230584	-4.391084	0.040023	10.800232	0.188500	33.612759	7.337432	0.000000	-1.779059	0.998625	1.349993	7.334034	0.128003	23.354758	-5.601702	0.000000	-0.346560	-0.151016	0.394838	-0.643597	-0.200851	0.419515	-0.569364	-0.367181	0.419515	-0.396084	-0.367181	0.345483	-0.321816	-0.307952	0.320806	-0.198024	-0.233924	0.296129	-2.475444	-1.708324	2.195971	0.000000	0.000000	-4.057422	6.268630	-0.390176	13.298957	-13.615570	28.761443	121.699830	89.070493	-2.525198	12.198157	9.618034	-22.660249	31.577677	116.577708	84.988087	-17.816733	-14.948090
4.120690	2.800067	-6.120183	84.582772	0.181333	0.889162	0.492745	-0.054200	-4.077304	-0.958140	10.439268	0.182200	33.532861	7.350289	0.000000	-1.437683	0.663337	2.121240	7.761237	0.135459	23.621412	-5.222489	0.000000	-0.316033	-0.105873	0.247523	-0.586904	-0.140811	0.262993	-0.519210	-0.257419	0.262993	-0.361194	-0.257419	0.216583	-0.293468	-0.215896	0.201113	-0.180581	-0.163997	0.185642	-2.257389	-1.197655	1.376650	0.000000	0.000000	-3.555188	6.105914	-0.562357	12.940951	-14.988785	30.809416	117.316103	89.613351	-1.718395	11.324052	9.202371	-22.675058	31.972372	112.740810	83.294593	-15.396944	-12.221666
4.137931	3.084775	-6.215384	85.765459	0.179462	0.888845	0.493067	-0.328259	-3.779044	-2.019298	10.077424	0.175884	33.415473	7.439283	0.000000	-1.116842	0.346509	3.093926	8.106154	0.141479	23.845502	-5.045791	0.000000	-0.284678	-0.058233	0.091734	-0.528675	-0.077450	0.097467	-0.467697	-0.141589	0.097467	-0.325358	-0.141589	0.080267	-0.264352	-0.118749	0.074534	-0.162665	-0.090203	0.068800	-2.033426	-0.658747	0.510197	0.000000	0.000000	-3.014576	5.912776	-0.605330	12.939066	-16.081108	33.057772	112.136040	90.386322	-1.166152	10.507736	9.045644	-22.324838	32.426885	108.207084	81.555456	-12.690979	-9.399380
4.155172	3.356870	-6.305484	86.875985	0.177563	0.888477	0.493406	-0.584964	-3.500441	-3.032013	9.724232	0.169720	33.273882	7.540847	0.000000	-0.868197	0.046371	4.184096	8.294633	0.144769	24.035628	-5.006005	0.000000	-0.252030	-0.009646	-0.066451	-0.468046	-0.012829	-0.070605	-0.414061	-0.023453	-0.070605	-0.288046	-0.023453	-0.058145	-0.234035	-0.019670	-0.053992	-0.144010	-0.014941	-0.049839	-1.800228	-0.109115	-0.369583	0.000000	0.000000	-2.380331	5.686078	-0.487425	13.251913	-16.800282	35.414363	106.172922	91.003333	-0.878417	9.721233	9.120407	-21.610851	32.771442	102.947113	79.972544	-9.731486	-6.595087
4.172414	3.608150	-6.372652	87.848830	0.175762	0.888014	0.493674	-0.833375	-3.251780	-3.938179	9.380964	0.163729	33.143749	7.668541	0.000000	-0.739878	-0.227673	5.341720	8.282102	0.144550	24.201109	-5.114414	0.000000	-0.220485	0.038516	-0.221002	-0.409463	0.051227	-0.234814	-0.362235	0.093649	-0.234814	-0.251993	0.093649	-0.193376	-0.204743	0.078543	-0.179564	-0.125985	0.059662	-0.165751	-1.574904	0.435705	-1.229145	0.000000	0.000000	-1.592454	5.423003	-0.179433	13.839307	-17.116193	37.919453	99.500871	91.055168	-0.830072	8.844914	9.349375	-20.617441	32.521540	97.044959	78.937560	-6.699657	-3.890215
4.189655	3.872840	-6.404866	88.618422	0.174111	0.887439	0.493849	-1.070858	-3.004853	-4.710477	9.066735	0.158244	33.048171	7.875018	0.000000	-0.757316	-0.501695	6.514289	8.067019	0.140796	24.364080	-5.410546	0.000000	-0.193199	0.091213	-0.355257	-0.358790	0.121314	-0.377461	-0.317406	0.221776	-0.377461	-0.220807	0.221776	-0.310850	-0.179405	0.186002	-0.288646	-0.110394	0.141289	-0.266443	-1.380000	1.031822	-1.975833	0.000000	0.000000	-0.618522	5.092700	0.316848	14.591083	-17.089111	40.263303	92.291988	90.710946	-0.978218	7.883326	9.867408	-19.303831	32.790809	90.412662	77.276185	-3.950757	-1.812937
4.206897	4.187805	-6.387345	89.121031	0.172640	0.886702	0.493881	-1.304717	-2.733013	-5.313959	8.792454	0.153457	33.005883	8.198596	0.000000	-0.948917	-0.799796	7.627811	7.654876	0.133603	24.545158	-5.893028	0.000000	-0.173538	0.153526	-0.460476	-0.322277	0.204190	-0.489256	-0.285105	0.373284	-0.489256	-0.198336	0.373284	-0.402917	-0.161147	0.313071	-0.374137	-0.099160	0.237812	-0.345357	-1.239563	1.736721	-2.561030	0.000000	0.000000	0.564109	4.675634	1.014310	15.334079	-17.108769	39.198074	85.423722	92.147913	-1.685815	7.054070	10.633972	-17.606975	34.628182	83.027805	74.253840	-1.631527	-0.483776
4.224138	4.449516	-6.294415	89.382186	0.171589	0.885858	0.493774	-1.561858	-2.522060	-5.734353	8.556321	0.149336	33.043597	8.571902	0.000000	-1.318967	-1.033586	8.688922	7.073198	0.123451	24.676691	-6.547849	0.000000	-0.163800	0.207625	-0.539585	-0.304192	0.276141	-0.573309	-0.269106	0.504819	-0.573309	-0.187206	0.504819	-0.472137	-0.152104	0.423388	-0.438413	-0.093595	0.321611	-0.404689	-1.170004	2.348693	-3.001009	0.000000	0.000000	1.927875	4.252696	1.808745	16.274161	-16.609538	40.603505	77.660699	91.295646	-2.488512	5.780987	11.567365	-15.693583	38.307932	75.096016	69.970325	0.068625	0.167017
4.241379	4.656463	-6.121972	89.394510	0.170981	0.884857	0.493460	-1.840894	-2.379573	-6.032907	8.391907	0.146466	33.201471	9.078004	0.000000	-1.864036	-1.204173	9.632688	6.357217	0.110954	24.780508	-7.307910	0.000000	-0.164165	0.252881	-0.596858	-0.304870	0.336332	-0.634162	-0.269706	0.614855	-0.634162	-0.187624	0.614855	-0.522251	-0.152443	0.515675	-0.484947	-0.093804	0.391713	-0.447644	-1.172612	2.860642	-3.319546	0.000000	0.000000	3.452361	3.860287	2.729758	17.274154	-15.689306	44.476653	69.300685	88.404839	-3.392280	4.334744	12.454967	-13.687961	42.744881	66.872253	64.816565	1.167936	0.257606
